<svg width="26" height="31" viewBox="0 0 26 31" fill="none" xmlns="http://www.w3.org/2000/svg">
<path fill-rule="evenodd" clip-rule="evenodd" d="M19.006 0.078125C17.4564 0.143073 15.5787 1.10966 14.4675 2.40919C13.4685 3.56327 12.5965 5.40512 12.8316 7.17116C14.5617 7.3064 16.3246 6.29357 17.4015 4.99338C18.4763 3.69085 19.204 1.88324 19.006 0.078125ZM18.5678 30.813C20.6674 30.7739 21.9972 28.9093 23.2828 27.0332C24.6915 24.9782 25.3136 22.9857 25.4063 22.6886C25.4115 22.672 25.415 22.6608 25.4169 22.655C25.416 22.6546 25.4134 22.6535 25.4092 22.6518C25.2072 22.5698 21.321 20.9921 21.2824 16.4316C21.2444 12.6655 24.2522 10.7921 24.5833 10.5859C24.5948 10.5787 24.6031 10.5735 24.6079 10.5704C22.7975 7.92677 19.9785 7.56428 18.9741 7.52288C17.507 7.37474 16.0836 7.93473 14.9206 8.39227C14.1816 8.68304 13.5477 8.93243 13.0745 8.93243C12.5479 8.93243 11.8967 8.67434 11.1658 8.38469C10.2091 8.00559 9.1161 7.57244 7.98768 7.59316C5.37398 7.63223 2.96205 9.11208 1.61601 11.451C-1.10216 16.1607 0.918947 23.1394 3.56701 26.9581C4.86319 28.8258 6.40446 30.9278 8.43142 30.8521C9.33644 30.8158 9.98053 30.542 10.6466 30.2587C11.4165 29.9314 12.2157 29.5916 13.4811 29.5916C14.6864 29.5916 15.4486 29.9209 16.1818 30.2377C16.883 30.5406 17.5577 30.8321 18.5678 30.813Z" fill="white"/>
</svg>
